<svg width="17.000000" height="17.000000" viewBox="0 0 17 17" fill="none" xmlns="http://www.w3.org/2000/svg" xmlns:xlink="http://www.w3.org/1999/xlink">
	<desc>
			Created with Pixso.
	</desc>
	<defs>
		<clipPath id="clip2_61">
			<rect id="IMAGE" rx="-0.500000" width="16.000000" height="16.000000" transform="translate(0.500000 0.500000)" fill="white" fill-opacity="0"/>
		</clipPath>
	</defs>
	<g clip-path="url(#clip2_61)">
		<path id="Mail_1_x2C__Envelope_1" d="M8.05 12.45L5.35 9.93C5.13 9.73 4.79 9.73 4.58 9.93L0 14.2L0 14.78C0 15.32 0.47 15.76 1.05 15.76L15.82 15.76C16.4 15.76 16.87 15.32 16.87 14.78L16.87 14.2L12.29 9.93C12.08 9.73 11.73 9.73 11.52 9.93L8.82 12.45C8.6 12.65 8.26 12.65 8.05 12.45ZM13.79 8.53L16.49 11.05C16.7 11.25 16.87 11.17 16.87 10.88L16.87 5.46C16.87 5.17 16.7 5.09 16.49 5.29L13.79 7.81C13.57 8.01 13.57 8.33 13.79 8.53ZM1.05 1C0.47 1 0 1.44 0 1.98L0 2.16L8.01 9.66C8.22 9.86 8.56 9.86 8.77 9.66L16.87 2.07L16.87 1.98C16.87 1.44 16.4 1 15.82 1L1.05 1ZM0 5.46L0 10.88C0 11.17 0.17 11.25 0.38 11.05L3.08 8.53C3.29 8.33 3.29 8.01 3.08 7.81L0.38 5.29C0.17 5.09 0 5.17 0 5.46Z" fill="#000000" fill-opacity="1.000000" fill-rule="nonzero"/>
	</g>
</svg>
