<svg width="187.000000" height="96.000000" viewBox="0 0 187 96" fill="none" xmlns="http://www.w3.org/2000/svg" xmlns:xlink="http://www.w3.org/1999/xlink">
	<desc>
			Created with Pixso.
	</desc>
	<defs>
		<clipPath id="clip2_32">
			<rect id="IMAGE" rx="-0.500000" width="186.000000" height="95.000000" transform="translate(0.500000 0.500000)" fill="white" fill-opacity="0"/>
		</clipPath>
	</defs>
	<g clip-path="url(#clip2_32)">
		<path id="infinity-icon" d="M143.32 0C120.75 0 105.99 18.37 92.76 32.28C79.55 18.37 65.84 0 43.26 0C17.49 0 0 20.63 0 48C0 75.36 17.49 96 43.26 96C66.13 96 80.8 78.07 93.91 64.55C107.02 78.07 120.45 96 143.32 96C169.09 96 186.59 75.36 186.59 48C186.59 20.63 169.09 0 143.32 0ZM43.26 76.54C27.92 76.54 18.72 64.91 18.72 48C18.72 31.08 27.92 19.45 43.26 19.45C59.18 19.45 68.78 33.83 81.56 49.21C69.86 63.13 59.67 76.54 43.26 76.54ZM143.32 76.54C126.91 76.54 116.82 61.64 105.11 47.73C117.89 32.34 127.41 19.45 143.32 19.45C158.66 19.45 167.86 31.08 167.86 48C167.86 64.91 158.66 76.54 143.32 76.54Z" fill="#000000" fill-opacity="1.000000" fill-rule="nonzero"/>
	</g>
</svg>
