<svg width="37.000000" height="37.000000" viewBox="0 0 37 37" fill="none" xmlns="http://www.w3.org/2000/svg" xmlns:xlink="http://www.w3.org/1999/xlink">
	<desc>
			Created with Pixso.
	</desc>
	<defs>
		<clipPath id="clip2_51">
			<rect id="IMAGE" rx="-0.500000" width="36.000000" height="36.000000" transform="translate(0.500000 0.500000)" fill="white" fill-opacity="0"/>
		</clipPath>
	</defs>
	<g clip-path="url(#clip2_51)">
		<path id="Vector" d="M37 18.5C37 28.71 28.71 37 18.5 37C8.28 37 0 28.71 0 18.5C0 8.28 8.28 0 18.5 0C28.71 0 37 8.28 37 18.5Z" fill="#FAC960" fill-opacity="1.000000" fill-rule="evenodd"/>
		<g opacity="0.300000">
			<path id="Vector" d="M24.28 16.93L26.11 13.97L18.4 11.04L22.42 6.54L20.68 4.82L12.72 10.02L14.35 11.83L12.72 13.97L18.45 17.8L11.2 23.66L19.04 30.3L28 19.2L24.28 16.93Z" fill="#FFFFFF" fill-opacity="1.000000" fill-rule="nonzero"/>
		</g>
		<path id="Vector" d="M15.07 21.9C12.23 21.9 9.93 24.2 9.93 27.04C9.93 29.88 12.23 32.18 15.07 32.18C17.91 32.18 20.21 29.88 20.21 27.04C20.21 24.2 17.91 21.9 15.07 21.9ZM24.66 13.68C22.58 13.68 20.89 15.37 20.89 17.45C20.89 19.53 22.58 21.22 24.66 21.22C26.74 21.22 28.43 19.53 28.43 17.45C28.43 15.37 26.74 13.68 24.66 13.68ZM14.21 14.48C15.59 14.48 16.7 13.37 16.7 12C16.7 10.62 15.59 9.51 14.21 9.51C12.84 9.51 11.73 10.62 11.73 12C11.73 13.37 12.84 14.48 14.21 14.48ZM22.81 5.65C22.81 4.98 22.26 4.43 21.58 4.43C20.9 4.43 20.35 4.98 20.35 5.65C20.35 6.33 20.9 6.88 21.58 6.88C22.26 6.88 22.81 6.33 22.81 5.65Z" fill="#FFFFFF" fill-opacity="1.000000" fill-rule="nonzero"/>
	</g>
</svg>
