<svg width="25.000000" height="25.000000" viewBox="0 0 25 25" fill="none" xmlns="http://www.w3.org/2000/svg" xmlns:xlink="http://www.w3.org/1999/xlink">
	<desc>
			Created with Pixso.
	</desc>
	<defs>
		<clipPath id="clip2_19">
			<rect id="instaicon" rx="-0.500000" width="24.000000" height="24.000000" transform="translate(0.500000 0.500000)" fill="white" fill-opacity="0"/>
		</clipPath>
	</defs>
	<g clip-path="url(#clip2_19)">
		<path id="Vector" d="M25 5.18C24.07 5.58 23.09 5.86 22.05 5.98C23.11 5.35 23.92 4.34 24.3 3.15C23.31 3.74 22.22 4.16 21.05 4.39C20.11 3.4 18.78 2.77 17.3 2.77C14.47 2.77 12.17 5.07 12.17 7.9C12.17 8.3 12.22 8.69 12.31 9.07C8.04 8.85 4.26 6.81 1.74 3.71C1.29 4.47 1.04 5.35 1.04 6.29C1.04 8.07 1.95 9.64 3.32 10.56C2.48 10.53 1.69 10.3 1 9.92C1 9.94 1 9.96 1 9.98C1 12.47 2.77 14.54 5.11 15.01C4.68 15.13 4.23 15.19 3.76 15.19C3.43 15.19 3.11 15.16 2.8 15.1C3.45 17.14 5.35 18.62 7.59 18.66C5.83 20.04 3.62 20.86 1.22 20.86C0.8 20.86 0.4 20.83 0 20.78C2.27 22.24 4.96 23.09 7.86 23.09C17.29 23.09 22.45 15.27 22.45 8.5C22.45 8.27 22.45 8.05 22.44 7.83C23.44 7.11 24.31 6.21 25 5.18Z" fill="#000000" fill-opacity="1.000000" fill-rule="nonzero"/>
	</g>
</svg>
