<svg width="48.000000" height="48.000000" viewBox="0 0 48 48" fill="none" xmlns="http://www.w3.org/2000/svg" xmlns:xlink="http://www.w3.org/1999/xlink">
	<desc>
			Created with Pixso.
	</desc>
	<defs>
		<clipPath id="clip6_176">
			<rect id="logos:bootstrap" rx="-0.500000" width="47.000000" height="47.000000" transform="translate(0.500000 0.500000)" fill="white" fill-opacity="0"/>
		</clipPath>
	</defs>
	<rect id="logos:bootstrap" rx="-0.500000" width="47.000000" height="47.000000" transform="translate(0.500000 0.500000)" fill="#FFFFFF" fill-opacity="0"/>
	<g clip-path="url(#clip6_176)">
		<path id="Vector" d="M0 41.81C0 45.22 2.77 48 6.18 48L41.81 48C45.22 48 48 45.22 48 41.81L48 6.18C48 2.77 45.22 0 41.81 0L6.18 0C2.77 0 0 2.77 0 6.18L0 41.81L0 41.81Z" fill="#563D7C" fill-opacity="1.000000" fill-rule="nonzero"/>
		<path id="Vector" d="M19.9 21.23L19.9 14.43L25.88 14.43C26.45 14.43 27 14.48 27.53 14.57C28.06 14.67 28.53 14.84 28.94 15.08C29.34 15.33 29.67 15.66 29.91 16.1C30.16 16.53 30.28 17.09 30.28 17.77C30.28 18.99 29.91 19.87 29.18 20.41C28.45 20.96 27.51 21.23 26.37 21.23L19.9 21.23ZM13.51 9.46L13.51 38.53L27.59 38.53C28.9 38.53 30.16 38.36 31.4 38.04C32.63 37.71 33.73 37.21 34.7 36.53C35.66 35.85 36.43 34.98 37 33.91C37.57 32.83 37.85 31.57 37.85 30.1C37.85 28.28 37.41 26.73 36.53 25.44C35.65 24.15 34.31 23.25 32.52 22.73C33.82 22.11 34.8 21.31 35.47 20.33C36.13 19.35 36.47 18.13 36.47 16.67C36.47 15.31 36.24 14.17 35.79 13.25C35.35 12.33 34.72 11.59 33.9 11.03C33.09 10.47 32.11 10.07 30.97 9.83C29.83 9.59 28.57 9.46 27.19 9.46L13.51 9.46ZM19.9 33.56L19.9 25.58L26.86 25.58C28.24 25.58 29.36 25.9 30.2 26.54C31.04 27.18 31.46 28.24 31.46 29.73C31.46 30.49 31.33 31.12 31.07 31.61C30.81 32.09 30.47 32.48 30.03 32.77C29.6 33.05 29.1 33.26 28.53 33.38C27.96 33.5 27.36 33.56 26.74 33.56L19.9 33.56Z" fill="#FFFFFF" fill-opacity="1.000000" fill-rule="nonzero"/>
	</g>
</svg>
