<svg width="32.000000" height="48.000000" viewBox="0 0 32 48" fill="none" xmlns="http://www.w3.org/2000/svg" xmlns:xlink="http://www.w3.org/1999/xlink">
	<desc>
			Created with Pixso.
	</desc>
	<defs>
		<clipPath id="clip6_193">
			<rect id="logos:figma" rx="-0.500000" width="31.000000" height="47.000000" transform="translate(0.500000 0.500000)" fill="white" fill-opacity="0"/>
		</clipPath>
	</defs>
	<rect id="logos:figma" rx="-0.500000" width="31.000000" height="47.000000" transform="translate(0.500000 0.500000)" fill="#FFFFFF" fill-opacity="0"/>
	<g clip-path="url(#clip6_193)">
		<path id="Vector" d="M8 48C12.41 48 16 44.41 16 40L16 32L8 32C3.58 32 0 35.58 0 40C0 44.41 3.58 48 8 48Z" fill="#0ACF83" fill-opacity="1.000000" fill-rule="nonzero"/>
		<path id="Vector" d="M0 24C0 19.58 3.58 16 8 16L16 16L16 32L8 32C3.58 32 0 28.41 0 24Z" fill="#A259FF" fill-opacity="1.000000" fill-rule="nonzero"/>
		<path id="Vector" d="M0 8C0 3.58 3.58 0 8 0L16 0L16 16L8 16C3.58 16 0 12.41 0 8Z" fill="#F24E1E" fill-opacity="1.000000" fill-rule="nonzero"/>
		<path id="Vector" d="M16 0L24 0C28.41 0 32 3.58 32 8C32 12.41 28.41 16 24 16L16 16L16 0Z" fill="#FF7262" fill-opacity="1.000000" fill-rule="nonzero"/>
		<path id="Vector" d="M32 24C32 28.41 28.41 32 24 32C19.58 32 16 28.41 16 24C16 19.58 19.58 16 24 16C28.41 16 32 19.58 32 24Z" fill="#1ABCFE" fill-opacity="1.000000" fill-rule="nonzero"/>
	</g>
</svg>
