<svg width="48.000000" height="48.000000" viewBox="0 0 48 48" fill="none" xmlns="http://www.w3.org/2000/svg" xmlns:xlink="http://www.w3.org/1999/xlink">
	<desc>
			Created with Pixso.
	</desc>
	<defs>
		<clipPath id="clip6_191">
			<rect id="akar-icons:github-fill" rx="-0.500000" width="47.000000" height="47.000000" transform="translate(0.500000 0.500000)" fill="white" fill-opacity="0"/>
		</clipPath>
	</defs>
	<rect id="akar-icons:github-fill" rx="-0.500000" width="47.000000" height="47.000000" transform="translate(0.500000 0.500000)" fill="#FFFFFF" fill-opacity="0"/>
	<g clip-path="url(#clip6_191)">
		<path id="Vector" d="M24 0C10.74 0 0 10.74 0 24C0 34.62 6.87 43.59 16.41 46.77C17.61 46.98 18.06 46.26 18.06 45.63C18.06 45.06 18.03 43.17 18.03 41.16C12 42.27 10.43 39.68 9.95 38.34C9.68 37.65 8.52 35.52 7.5 34.95C6.66 34.5 5.45 33.39 7.46 33.36C9.35 33.33 10.71 35.09 11.16 35.82C13.31 39.45 16.77 38.43 18.15 37.8C18.36 36.24 18.99 35.18 19.68 34.59C14.34 33.99 8.76 31.92 8.76 22.74C8.76 20.12 9.68 17.96 11.22 16.29C10.98 15.69 10.14 13.23 11.46 9.92C11.46 9.92 13.47 9.29 18.06 12.39C19.98 11.85 22.02 11.58 24.06 11.58C26.1 11.58 28.14 11.85 30.06 12.39C34.65 9.27 36.66 9.92 36.66 9.92C37.98 13.23 37.14 15.69 36.9 16.29C38.43 17.96 39.36 20.1 39.36 22.74C39.36 31.95 33.75 33.99 28.41 34.59C29.28 35.34 30.03 36.78 30.03 39.03C30.03 42.24 30 44.82 30 45.63C30 46.26 30.45 47.01 31.65 46.77C36.41 45.16 40.55 42.09 43.48 38.01C46.42 33.93 47.99 29.02 48 24C48 10.74 37.25 0 24 0Z" fill="#FFFFFF" fill-opacity="1.000000" fill-rule="evenodd"/>
	</g>
</svg>
