<svg width="48.000000" height="48.000000" viewBox="0 0 48 48" fill="none" xmlns="http://www.w3.org/2000/svg" xmlns:xlink="http://www.w3.org/1999/xlink">
	<desc>
			Created with Pixso.
	</desc>
	<defs>
		<clipPath id="clip6_170">
			<rect id="logos:javascript" rx="-0.500000" width="47.000000" height="47.000000" transform="translate(0.500000 0.500000)" fill="white" fill-opacity="0"/>
		</clipPath>
	</defs>
	<rect id="logos:javascript" rx="-0.500000" width="47.000000" height="47.000000" transform="translate(0.500000 0.500000)" fill="#FFFFFF" fill-opacity="0"/>
	<g clip-path="url(#clip6_170)">
		<path id="Vector" d="M0 0L48 0L48 48L0 48L0 0Z" fill="#F7DF1E" fill-opacity="1.000000" fill-rule="nonzero"/>
		<path id="Vector" d="M12.62 40.11L16.29 37.88C17 39.14 17.64 40.2 19.19 40.2C20.67 40.2 21.61 39.62 21.61 37.37L21.61 22.03L26.12 22.03L26.12 37.43C26.12 42.1 23.38 44.23 19.38 44.23C15.77 44.23 13.68 42.36 12.62 40.11L12.62 40.11ZM28.57 39.62L32.24 37.5C33.21 39.08 34.46 40.24 36.69 40.24C38.55 40.24 39.75 39.3 39.75 38.01C39.75 36.47 38.52 35.92 36.46 35.02L35.33 34.53C32.08 33.15 29.92 31.41 29.92 27.73C29.92 24.35 32.5 21.77 36.52 21.77C39.39 21.77 41.45 22.77 42.94 25.38L39.42 27.64C38.65 26.25 37.81 25.71 36.52 25.71C35.2 25.71 34.37 26.54 34.37 27.64C34.37 28.99 35.2 29.54 37.14 30.38L38.26 30.86C42.1 32.5 44.26 34.18 44.26 37.95C44.26 42.01 41.07 44.23 36.78 44.23C32.59 44.23 29.89 42.23 28.57 39.62L28.57 39.62Z" fill="#000000" fill-opacity="1.000000" fill-rule="nonzero"/>
	</g>
</svg>
