<svg width="90.159363" height="66.000000" viewBox="0 0 90.1594 66" fill="none" xmlns="http://www.w3.org/2000/svg" xmlns:xlink="http://www.w3.org/1999/xlink">
	<desc>
			Created with Pixso.
	</desc>
	<defs>
		<linearGradient x1="25.955908" y1="33.448975" x2="36.422775" y2="58.076904" id="paint_linear_6_8_0" gradientUnits="userSpaceOnUse">
			<stop stop-color="#BB842C"/>
			<stop offset="1.000000" stop-color="#FFB742"/>
		</linearGradient>
		<linearGradient x1="64.203514" y1="32.551025" x2="53.736649" y2="7.923097" id="paint_linear_6_11_0" gradientUnits="userSpaceOnUse">
			<stop stop-color="#BB842C"/>
			<stop offset="1.000000" stop-color="#FFB742"/>
		</linearGradient>
	</defs>
	<path d="M40.27 56.64C36.82 59.1 33.5 57.66 32.26 56.64L26.31 52.74L21.03 48.84C20.2 48.43 17.8 46.37 17.13 43.71C16.5 41.21 17.67 37.69 18.77 36.52L26.31 33.44L26.72 33.65C39.53 41.04 42.94 44.12 42.53 47.81L42.53 51.3C42.59 52.6 42.24 55.49 40.27 56.64Z" fill="url(#paint_linear_6_8_0)" fill-opacity="1.000000" fill-rule="nonzero"/>
	<path d="M40.27 56.64C42.24 55.49 42.59 52.6 42.53 51.3L42.53 47.81C42.94 44.12 39.53 41.04 26.72 33.65C26.39 33.49 26.31 33.44 26.31 33.44L18.77 36.52C17.67 37.69 16.5 41.21 17.13 43.71C17.8 46.37 20.2 48.43 21.03 48.84L26.31 52.74L32.26 56.64C33.5 57.66 36.82 59.1 40.27 56.64Z" stroke="#FFB742" stroke-opacity="1.000000" stroke-width="1.000000"/>
	<path d="M12 38.43L12 27.76C12.06 25.85 13.43 22.22 17.33 19.96C21.55 17.52 30.12 11.28 33.95 8.68C35.19 7.91 41.55 6.68 42.37 12.22C42.37 20.43 44.22 21.2 36.83 26.53C30.3 31.24 22.87 35.77 20 37.62C19.04 38.44 17.75 40.55 18.15 42.96C18.56 45.41 20.41 47.88 21.03 48.84C20.82 49.25 12.61 44.64 12 38.43Z" fill="#FFB742" fill-opacity="1.000000" fill-rule="evenodd"/>
	<path d="M49.88 9.35C53.33 6.89 56.65 8.33 57.88 9.35L63.84 13.25L69.12 17.15C69.94 17.56 72.35 19.62 73.02 22.28C73.65 24.78 72.48 28.3 71.38 29.47L63.84 32.55L63.43 32.34C50.62 24.95 47.21 21.87 47.62 18.18L47.62 14.69C47.55 13.39 47.91 10.5 49.88 9.35Z" fill="url(#paint_linear_6_11_0)" fill-opacity="1.000000" fill-rule="nonzero"/>
	<path d="M49.88 9.35C47.91 10.5 47.55 13.39 47.62 14.69L47.62 18.18C47.21 21.87 50.62 24.95 63.43 32.34C63.75 32.5 63.84 32.55 63.84 32.55L71.38 29.47C72.48 28.3 73.65 24.78 73.02 22.28C72.35 19.62 69.94 17.56 69.12 17.15L63.84 13.25L57.88 9.35C56.65 8.33 53.33 6.89 49.88 9.35Z" stroke="#FFB742" stroke-opacity="1.000000" stroke-width="1.000000"/>
	<path d="M78.15 27.56L78.15 38.23C78.09 40.14 76.72 43.77 72.82 46.03C68.6 48.47 60.03 54.71 56.19 57.31C54.96 58.08 48.6 59.31 47.78 53.77C47.78 45.56 45.93 44.79 53.32 39.46C59.85 34.75 67.28 30.22 70.15 28.37C71.11 27.55 72.4 25.44 72 23.03C71.59 20.58 69.74 18.11 69.12 17.15C69.33 16.74 77.54 21.35 78.15 27.56Z" fill="#FFB742" fill-opacity="1.000000" fill-rule="evenodd"/>
</svg>
