<svg width="48.188232" height="48.000000" viewBox="0 0 48.1882 48" fill="none" xmlns="http://www.w3.org/2000/svg" xmlns:xlink="http://www.w3.org/1999/xlink">
	<desc>
			Created with Pixso.
	</desc>
	<defs>
		<clipPath id="clip6_185">
			<rect id="logos:python" rx="-0.500000" width="47.188236" height="47.000000" transform="translate(0.500000 0.500000)" fill="white" fill-opacity="0"/>
		</clipPath>
		<linearGradient x1="4.647030" y1="4.314846" x2="28.417461" y2="27.953224" id="paint_linear_6_186_0" gradientUnits="userSpaceOnUse">
			<stop stop-color="#387EB8"/>
			<stop offset="1.000000" stop-color="#366994"/>
		</linearGradient>
		<linearGradient x1="19.269535" y1="19.459890" x2="44.798874" y2="43.701355" id="paint_linear_6_187_0" gradientUnits="userSpaceOnUse">
			<stop stop-color="#FFE052"/>
			<stop offset="1.000000" stop-color="#FFC331"/>
		</linearGradient>
	</defs>
	<rect id="logos:python" rx="-0.500000" width="47.188236" height="47.000000" transform="translate(0.500000 0.500000)" fill="#FFFFFF" fill-opacity="0"/>
	<g clip-path="url(#clip6_185)">
		<path id="Vector" d="M23.89 0.01C11.68 0.01 12.44 5.3 12.44 5.3L12.46 10.78L24.1 10.78L24.1 12.43L7.83 12.43C7.83 12.43 0.02 11.54 0.02 23.86C0.02 36.17 6.84 35.73 6.84 35.73L10.91 35.73L10.91 30.02C10.91 30.02 10.69 23.2 17.61 23.2L29.16 23.2C29.16 23.2 35.65 23.31 35.65 16.93L35.65 6.39C35.65 6.39 36.64 0.01 23.89 0.01ZM17.46 3.7C17.74 3.7 18.01 3.75 18.27 3.85C18.52 3.96 18.75 4.11 18.95 4.31C19.14 4.5 19.29 4.73 19.4 4.99C19.5 5.24 19.56 5.52 19.56 5.79C19.56 6.07 19.5 6.34 19.4 6.59C19.29 6.85 19.14 7.08 18.95 7.27C18.75 7.47 18.52 7.62 18.27 7.73C18.01 7.83 17.74 7.89 17.46 7.89C17.19 7.89 16.92 7.83 16.66 7.73C16.41 7.62 16.18 7.47 15.98 7.27C15.79 7.08 15.63 6.85 15.53 6.59C15.42 6.34 15.37 6.07 15.37 5.79C15.37 5.52 15.42 5.24 15.53 4.99C15.63 4.73 15.79 4.5 15.98 4.31C16.18 4.11 16.41 3.96 16.66 3.85C16.92 3.75 17.19 3.7 17.46 3.7Z" fill="url(#paint_linear_6_186_0)" fill-opacity="1.000000" fill-rule="nonzero"/>
		<path id="Vector" d="M24.23 47.83C36.44 47.83 35.67 42.54 35.67 42.54L35.66 37.06L24.01 37.06L24.01 35.41L40.29 35.41C40.29 35.41 48.09 36.3 48.09 23.98C48.09 11.67 41.28 12.1 41.28 12.1L37.21 12.1L37.21 17.82C37.21 17.82 37.43 24.63 30.5 24.63L18.95 24.63C18.95 24.63 12.46 24.53 12.46 30.91L12.46 41.45C12.46 41.45 11.48 47.83 24.23 47.83L24.23 47.83ZM30.65 44.14C30.38 44.14 30.11 44.09 29.85 43.98C29.6 43.88 29.37 43.73 29.17 43.53C28.98 43.34 28.82 43.1 28.72 42.85C28.61 42.6 28.56 42.32 28.56 42.05C28.56 41.77 28.61 41.5 28.72 41.25C28.82 40.99 28.98 40.76 29.17 40.57C29.37 40.37 29.6 40.22 29.85 40.11C30.11 40.01 30.38 39.95 30.65 39.95C30.93 39.95 31.2 40.01 31.46 40.11C31.71 40.22 31.94 40.37 32.14 40.57C32.33 40.76 32.48 40.99 32.59 41.25C32.69 41.5 32.75 41.77 32.75 42.05C32.75 42.32 32.69 42.6 32.59 42.85C32.48 43.1 32.33 43.34 32.14 43.53C31.94 43.73 31.71 43.88 31.46 43.98C31.2 44.09 30.93 44.14 30.65 44.14L30.65 44.14Z" fill="url(#paint_linear_6_187_0)" fill-opacity="1.000000" fill-rule="nonzero"/>
	</g>
</svg>
