<svg width="48.000000" height="36.000000" viewBox="0 0 48 36" fill="none" xmlns="http://www.w3.org/2000/svg" xmlns:xlink="http://www.w3.org/1999/xlink">
	<desc>
			Created with Pixso.
	</desc>
	<defs>
		<clipPath id="clip6_179">
			<rect id="logos:sass" rx="-0.500000" width="47.000000" height="35.000000" transform="translate(0.500000 0.500000)" fill="white" fill-opacity="0"/>
		</clipPath>
	</defs>
	<rect id="logos:sass" rx="-0.500000" width="47.000000" height="35.000000" transform="translate(0.500000 0.500000)" fill="#FFFFFF" fill-opacity="0"/>
	<g clip-path="url(#clip6_179)">
		<path id="Vector" d="M41.3 20.72C39.63 20.73 38.18 21.13 36.96 21.72C36.52 20.84 36.07 20.05 35.99 19.47C35.9 18.8 35.8 18.39 35.9 17.59C36.01 16.78 36.48 15.64 36.47 15.55C36.46 15.46 36.37 15.05 35.4 15.04C34.44 15.03 33.61 15.23 33.52 15.48C33.42 15.73 33.24 16.31 33.11 16.9C32.95 17.78 31.19 20.9 30.19 22.53C29.86 21.9 29.58 21.34 29.52 20.89C29.43 20.22 29.33 19.81 29.43 19C29.54 18.2 30.01 17.05 30 16.97C29.99 16.88 29.9 16.47 28.93 16.46C27.97 16.45 27.14 16.64 27.05 16.9C26.95 17.15 26.85 17.74 26.64 18.32C26.44 18.9 24.11 24.11 23.5 25.46C23.25 26 22.99 26.54 22.72 27.07C22.72 27.07 22.71 27.1 22.68 27.14C22.6 27.31 22.51 27.48 22.42 27.64L22.42 27.65C22.29 27.89 22.15 28.1 22.08 28.1C22.03 28.1 21.93 27.47 22.1 26.62C22.45 24.81 23.28 21.99 23.27 21.9C23.27 21.84 23.43 21.35 22.73 21.1C22.05 20.85 21.8 21.27 21.74 21.27C21.68 21.27 21.63 21.42 21.63 21.42C21.63 21.42 22.4 18.25 20.18 18.25C18.8 18.25 16.9 19.76 15.95 21.13C14.88 21.71 13.81 22.3 12.73 22.88C12.22 23.17 11.68 23.46 11.19 23.73C11.15 23.7 11.12 23.65 11.08 23.62C8.41 20.76 3.46 18.74 3.67 14.9C3.75 13.5 4.23 9.83 13.17 5.37C20.53 1.74 26.39 2.75 27.4 4.98C28.86 8.16 24.27 14.07 16.66 14.93C13.76 15.25 12.24 14.13 11.85 13.71C11.45 13.28 11.39 13.25 11.24 13.34C10.99 13.47 11.15 13.86 11.24 14.09C11.47 14.68 12.4 15.73 13.98 16.25C15.38 16.7 18.78 16.96 22.9 15.37C27.51 13.58 31.11 8.62 30.05 4.47C29 0.26 22 -1.13 15.38 1.22C11.45 2.62 7.18 4.82 4.11 7.69C0.47 11.1 -0.11 14.06 0.13 15.3C0.97 19.71 7.05 22.58 9.48 24.7C9.36 24.77 9.25 24.83 9.15 24.89C7.93 25.49 3.3 27.91 2.15 30.47C0.83 33.38 2.36 35.46 3.36 35.74C6.48 36.6 9.69 35.05 11.41 32.48C13.14 29.91 12.93 26.57 12.13 25.04C12.12 25.02 12.11 25 12.1 24.98C12.41 24.8 12.73 24.61 13.05 24.42C13.63 24.08 14.21 23.75 14.81 23.44C14.51 24.25 14.29 25.22 14.19 26.62C14.05 28.26 14.73 30.4 15.61 31.23C16 31.6 16.47 31.61 16.76 31.61C17.8 31.61 18.26 30.75 18.78 29.74C19.4 28.5 19.97 27.06 19.97 27.06C19.97 27.06 19.27 30.95 21.19 30.95C21.89 30.95 22.6 30.05 22.91 29.58L22.91 29.59C22.91 29.59 22.93 29.56 22.96 29.5C23.03 29.39 23.08 29.32 23.08 29.32L23.08 29.3C23.36 28.81 23.99 27.7 24.92 25.86C26.13 23.48 27.29 20.51 27.29 20.51C27.29 20.51 27.4 21.23 27.75 22.44C27.96 23.15 28.4 23.93 28.75 24.68C28.47 25.07 28.3 25.29 28.3 25.29L28.31 25.3C28.08 25.6 27.83 25.92 27.56 26.23C26.61 27.37 25.47 28.67 25.32 29.05C25.13 29.49 25.18 29.82 25.53 30.08C25.78 30.27 26.23 30.3 26.7 30.27C27.55 30.21 28.16 30 28.45 29.87C28.92 29.7 29.46 29.45 29.97 29.07C30.9 28.38 31.47 27.4 31.42 26.09C31.39 25.38 31.16 24.66 30.87 23.99C30.95 23.86 31.03 23.74 31.12 23.62C32.6 21.46 33.74 19.09 33.74 19.09C33.74 19.09 33.85 19.82 34.21 21.02C34.38 21.63 34.74 22.3 35.06 22.95C33.66 24.07 32.81 25.39 32.5 26.24C31.95 27.83 32.38 28.55 33.19 28.72C33.56 28.8 34.08 28.62 34.47 28.45C34.96 28.3 35.54 28.03 36.09 27.62C37.02 26.93 37.92 25.97 37.87 24.67C37.84 24.07 37.69 23.49 37.47 22.92C38.65 22.43 40.17 22.16 42.11 22.39C46.27 22.88 47.09 25.47 46.94 26.57C46.78 27.66 45.91 28.25 45.62 28.44C45.33 28.62 45.23 28.68 45.26 28.81C45.29 29 45.43 29 45.68 28.96C46.02 28.9 47.86 28.08 47.94 26.07C48.07 23.5 45.63 20.69 41.3 20.72ZM9.19 31.54C7.81 33.04 5.89 33.61 5.06 33.13C4.17 32.62 4.52 30.4 6.21 28.8C7.24 27.83 8.57 26.93 9.46 26.38C9.66 26.26 9.95 26.08 10.31 25.87C10.37 25.83 10.41 25.81 10.41 25.81L10.62 25.68C11.24 27.96 10.64 29.96 9.19 31.54ZM19.25 24.7C18.77 25.87 17.76 28.87 17.15 28.71C16.62 28.57 16.3 26.29 17.04 24.05C17.42 22.92 18.22 21.57 18.68 21.05C19.43 20.21 20.26 19.93 20.46 20.27C20.72 20.72 19.54 23.97 19.25 24.7ZM27.54 28.67C27.34 28.78 27.15 28.85 27.06 28.8C27 28.76 27.15 28.62 27.15 28.62C27.15 28.62 28.19 27.5 28.6 26.99C28.84 26.7 29.12 26.35 29.42 25.95L29.42 26.07C29.42 27.4 28.12 28.31 27.54 28.67L27.54 28.67ZM33.94 27.21C33.8 27.11 33.82 26.76 34.32 25.66C34.51 25.24 34.97 24.52 35.75 23.83C35.83 24.11 35.89 24.38 35.89 24.63C35.88 26.32 34.67 26.95 33.94 27.21Z" fill="#CD6799" fill-opacity="1.000000" fill-rule="nonzero"/>
	</g>
</svg>
