<svg width="48.000000" height="48.000000" viewBox="0 0 48 48" fill="none" xmlns="http://www.w3.org/2000/svg" xmlns:xlink="http://www.w3.org/1999/xlink">
	<desc>
			Created with Pixso.
	</desc>
	<defs>
		<clipPath id="clip6_188">
			<rect id="bxl:tailwind-css" rx="-0.500000" width="47.000000" height="47.000000" transform="translate(0.500000 0.500000)" fill="white" fill-opacity="0"/>
		</clipPath>
	</defs>
	<rect id="bxl:tailwind-css" rx="-0.500000" width="47.000000" height="47.000000" transform="translate(0.500000 0.500000)" fill="#FFFFFF" fill-opacity="0"/>
	<g clip-path="url(#clip6_188)">
		<path id="Vector" d="M37 19.02C35.5 18.5 34.17 17.57 33.18 16.34C32.08 14.96 30.68 13.85 29.09 13.1C27.5 12.35 25.75 11.97 24 12C21.63 11.83 19.28 12.56 17.43 14.04C15.58 15.52 14.35 17.65 14 20C14.7 18.82 15.75 17.9 17.01 17.37C18.27 16.83 19.66 16.71 21 17.02C22.49 17.55 23.81 18.48 24.81 19.71C25.92 21.08 27.32 22.17 28.91 22.92C30.5 23.66 32.24 24.03 34 24C36.36 24.16 38.71 23.43 40.56 21.95C42.41 20.47 43.64 18.34 44 16C43.31 17.18 42.25 18.12 40.99 18.66C39.73 19.2 38.33 19.33 37 19.02ZM11 28.98C12.49 29.49 13.82 30.42 14.81 31.66C15.91 33.03 17.31 34.14 18.9 34.89C20.49 35.64 22.24 36.02 24 36C26.36 36.16 28.71 35.43 30.56 33.95C32.41 32.47 33.64 30.34 34 28C33.29 29.17 32.24 30.09 30.98 30.62C29.72 31.16 28.33 31.28 27 30.98C25.5 30.44 24.18 29.51 23.18 28.28C22.07 26.91 20.67 25.82 19.08 25.08C17.49 24.34 15.75 23.97 14 24C11.63 23.83 9.28 24.56 7.43 26.04C5.58 27.52 4.35 29.65 4 32C4.68 30.81 5.74 29.87 7 29.33C8.26 28.79 9.66 28.66 11 28.98Z" fill="#33A9DC" fill-opacity="1.000000" fill-rule="nonzero"/>
	</g>
</svg>
