<svg width="48.000000" height="48.000000" viewBox="0 0 48 48" fill="none" xmlns="http://www.w3.org/2000/svg" xmlns:xlink="http://www.w3.org/1999/xlink">
	<desc>
			Created with Pixso.
	</desc>
	<defs>
		<clipPath id="clip6_182">
			<rect id="logos:typescript-icon" rx="-0.500000" width="47.000000" height="47.000000" transform="translate(0.500000 0.500000)" fill="white" fill-opacity="0"/>
		</clipPath>
	</defs>
	<rect id="logos:typescript-icon" rx="-0.500000" width="47.000000" height="47.000000" transform="translate(0.500000 0.500000)" fill="#FFFFFF" fill-opacity="0"/>
	<g clip-path="url(#clip6_182)">
		<path id="Vector" d="M0 24L0 48L48 48L48 0L0 0L0 24Z" fill="#007ACC" fill-opacity="1.000000" fill-rule="nonzero"/>
		<path id="Vector" d="M10.61 24.15L10.59 26.12L16.84 26.12L16.84 43.87L21.26 43.87L21.26 26.12L27.51 26.12L27.51 24.19C27.51 23.13 27.49 22.23 27.46 22.21C27.43 22.18 23.63 22.17 19.02 22.17L10.63 22.2L10.61 24.15L10.61 24.15ZM38.73 22.14C39.95 22.45 40.87 22.99 41.73 23.87C42.17 24.34 42.83 25.2 42.88 25.41C42.89 25.47 40.81 26.87 39.54 27.66C39.5 27.69 39.31 27.49 39.11 27.18C38.49 26.29 37.84 25.9 36.85 25.83C35.4 25.73 34.46 26.49 34.47 27.76C34.47 28.14 34.52 28.36 34.67 28.66C34.99 29.33 35.59 29.72 37.45 30.53C40.89 32.01 42.36 32.98 43.27 34.37C44.3 35.92 44.52 38.38 43.83 40.22C43.07 42.22 41.18 43.57 38.52 44.02C37.7 44.17 35.75 44.14 34.86 43.98C32.94 43.64 31.11 42.69 29.98 41.44C29.54 40.95 28.68 39.68 28.73 39.59C28.75 39.56 28.95 39.44 29.17 39.31C29.39 39.18 30.19 38.72 30.95 38.28L32.33 37.48L32.62 37.9C33.03 38.52 33.91 39.37 34.44 39.65C35.98 40.46 38.08 40.34 39.11 39.41C39.56 39.01 39.74 38.59 39.74 37.97C39.74 37.42 39.67 37.17 39.38 36.75C39.01 36.22 38.25 35.77 36.08 34.83C33.61 33.77 32.54 33.1 31.56 32.05C31 31.44 30.47 30.47 30.25 29.65C30.06 28.97 30.02 27.28 30.16 26.59C30.67 24.2 32.48 22.53 35.08 22.03C35.93 21.87 37.9 21.93 38.73 22.14Z" fill="#FFFFFF" fill-opacity="1.000000" fill-rule="nonzero"/>
	</g>
</svg>
